<svg width="28" height="28" viewBox="0 0 28 28" fill="none" xmlns="http://www.w3.org/2000/svg">
<path d="M26.603 12.9793C25.8568 11.5942 25.2514 10.9194 23.8857 10.0336L23.8786 11.4817C25.3429 13.3659 25.4768 13.3729 25.8638 15.5872C26.3776 18.5539 25.2655 21.4574 22.1466 22.4625C20.732 22.8634 19.1972 22.7368 17.7895 22.3359C15.579 21.6962 13.8121 20.2341 12.5024 18.4064C12.5309 18.343 12.5517 18.2729 12.5799 18.2094C12.756 17.8016 12.8475 17.3519 12.8475 16.8809C12.8475 14.9967 11.3198 13.4782 9.44033 13.4782C7.56082 13.4782 6.0332 15.0037 6.0332 16.8809C6.0332 17.4924 6.19486 18.069 6.47656 18.5609C6.77224 19.1936 7.27215 19.728 7.93368 20.0794C8.22936 20.2341 8.54631 20.3395 8.85594 20.3959C11.517 24.0936 15.3818 27.0602 19.3102 27.1306C20.9785 27.1024 21.7878 27.0533 23.3718 26.1535C25.5683 24.902 26.814 22.8773 27.5535 20.7755C28.4614 18.1743 27.9053 15.3833 26.603 12.9793Z" fill="#019FFE"/>
<path d="M22.4689 4.77225C21.2588 3.07527 21.456 3.15977 19.9367 1.94867C18.0236 0.420698 15.2311 0.0897523 13.0159 0.399572C10.2656 0.786837 8.05722 2.48381 6.52371 4.75112C5.63746 6.05376 5.21574 7.20855 5.1875 8.60976L6.4745 7.94085C7.5156 5.77914 7.5156 5.75801 9.20367 4.2864C11.4754 2.30074 14.6898 2.10356 17.0178 4.4061C18.0236 5.47638 18.6213 6.89871 18.9097 8.32813C19.3598 10.5813 18.8815 12.8275 17.8619 14.8415C16.8558 14.933 15.9841 15.468 15.4424 16.2567C15.0272 16.82 14.781 17.5172 14.781 18.2704C14.781 20.1577 16.3074 21.6787 18.1853 21.6787C20.0631 21.6787 21.5895 20.1507 21.5895 18.2704C21.5895 17.8339 21.505 17.4185 21.3574 17.0382C23.3829 12.9965 24.164 8.41969 22.4689 4.77225Z" fill="#03A1FA"/>
<path d="M15.1744 6.48706C14.1827 6.48706 13.2892 6.90992 12.67 7.58651C8.12586 7.76974 3.53245 9.34142 1.30939 12.5763C0.27544 14.3947 0.275441 14.6344 0.0644114 16.1638C-0.266287 18.5952 0.718462 21.1888 2.05517 22.9789C3.72225 25.2058 6.34613 26.249 9.06838 26.4958C10.6372 26.6367 11.7836 26.5168 13.0219 25.8615L11.8188 25.058C9.12486 25.0367 9.38513 25.1003 7.30294 24.4376C4.43278 23.5286 2.74447 20.6813 3.63085 17.531C4.08115 16.1285 5.03068 14.9162 6.14208 13.9718C7.87958 12.4917 10.0603 11.8294 12.2974 11.7375C12.9025 12.6892 13.9647 13.3165 15.1744 13.3165C17.0597 13.3165 18.5793 11.7871 18.5793 9.90515C18.5793 8.02346 17.0526 6.48706 15.1744 6.48706Z" fill="#019FFE"/>
</svg>
